<!DOCTYPE svg PUBLIC "-//W3C//DTD SVG 1.1//EN" "http://www.w3.org/Graphics/SVG/1.1/DTD/svg11.dtd">
<!-- Uploaded to: SVG Repo, www.svgrepo.com, Transformed by: SVG Repo Mixer Tools -->
<svg width="800px" height="800px" viewBox="-25.6 -25.6 307.20 307.20" xmlns="http://www.w3.org/2000/svg" preserveAspectRatio="xMinYMin meet" fill="#000000" stroke="#000000" stroke-width="1.7920000000000003" transform="matrix(1, 0, 0, 1, 0, 0)rotate(0)">
<g id="SVGRepo_bgCarrier" stroke-width="0" transform="translate(0,0), scale(1)">
<path transform="translate(-25.6, -25.6), scale(9.6)" d="M16,28.827732536010444C18.83871231796884,28.3222528064622,20.89492907284567,26.286762165165094,23.310434583887627,24.71223667877304C26.227854458295877,22.810542840458837,30.755575610280356,22.13550665719281,31.489288526599413,18.731179479217545C32.221386041120574,15.33434754375691,28.912604901708967,12.436203683313732,26.493912379673947,9.941336862742904C24.61627305912711,8.004563172348357,22.113755465202228,7.0565746052693346,19.505167732534506,6.369630803460494C17.159432041654963,5.751906287872297,14.80820258906089,5.680145856456369,12.448618000910031,6.242658149642693C9.758333402890159,6.884007549090139,7.032263856876675,7.687352780983678,5.21874221875105,9.775437917793164C3.1060585145668727,12.207977650843212,1.6382429602622326,15.286049808553475,1.7996022826312323,18.503913254363006C1.9756414740138948,22.014525908553058,3.2781476406082746,25.706111804698242,6.121230470194744,27.773059077555622C8.883086278746168,29.78095356170648,12.638281068580921,29.426342252646617,16,28.827732536010444" fill="#7ed0ec" strokewidth="0"/>
</g>
<g id="SVGRepo_tracerCarrier" stroke-linecap="round" stroke-linejoin="round" stroke="#CCCCCC" stroke-width="3.072"/>
<g id="SVGRepo_iconCarrier">
<path d="M0 0h256v256H0V0z" fill="#F7DF1E"/>
<path d="M67.312 213.932l19.59-11.856c3.78 6.701 7.218 12.371 15.465 12.371 7.905 0 12.89-3.092 12.89-15.12v-81.798h24.057v82.138c0 24.917-14.606 36.259-35.916 36.259-19.245 0-30.416-9.967-36.087-21.996M152.381 211.354l19.588-11.341c5.157 8.421 11.859 14.607 23.715 14.607 9.969 0 16.325-4.984 16.325-11.858 0-8.248-6.53-11.17-17.528-15.98l-6.013-2.58c-17.357-7.387-28.87-16.667-28.87-36.257 0-18.044 13.747-31.792 35.228-31.792 15.294 0 26.292 5.328 34.196 19.247L210.29 147.43c-4.125-7.389-8.591-10.31-15.465-10.31-7.046 0-11.514 4.468-11.514 10.31 0 7.217 4.468 10.14 14.778 14.608l6.014 2.577c20.45 8.765 31.963 17.7 31.963 37.804 0 21.654-17.012 33.51-39.867 33.51-22.339 0-36.774-10.654-43.819-24.574"/>
</g>
</svg>