<svg width="430" height="430" viewBox="0 0 430 430" fill="none" xmlns="http://www.w3.org/2000/svg">
<path d="M188.22 375.22V241.78H54.7803V375.22H188.22Z" stroke="#121331" stroke-width="12" stroke-linecap="round" stroke-linejoin="round"/>
<path d="M122.401 268.47H161.531V348.53H81.4707V268.47H122.401Z" stroke="#08A88A" stroke-width="12" stroke-linecap="round" stroke-linejoin="round"/>
<path d="M188.22 55.28H54.7803V188.72H188.22V55.28Z" stroke="#121331" stroke-width="12" stroke-linecap="round" stroke-linejoin="round"/>
<path d="M81.4707 121.1V82H161.531V162H81.4707V121.1Z" stroke="#08A88A" stroke-width="12" stroke-linecap="round" stroke-linejoin="round"/>
<path d="M241.28 55.28V188.72H374.72V55.28H241.28Z" stroke="#121331" stroke-width="12" stroke-linecap="round" stroke-linejoin="round"/>
<path d="M307.1 162H268V82H348V162H307.1Z" stroke="#08A88A" stroke-width="12" stroke-linecap="round" stroke-linejoin="round"/>
<path d="M268.38 321.68V374.88" stroke="#121331" stroke-width="12" stroke-linecap="round" stroke-linejoin="round"/>
<path d="M348.42 321.54C348.42 298.21 348.5 267.88 348.5 267.88H268.38V295.54" stroke="#121331" stroke-width="12" stroke-linecap="round" stroke-linejoin="round"/>
<path d="M375.1 268.59C375.1 307.5 375 374.88 375 374.88H295V295H322.06V348H347.77" stroke="#121331" stroke-width="12" stroke-linecap="round" stroke-linejoin="round"/>
<path d="M241.69 374.88V241.69H374.49" stroke="#121331" stroke-width="12" stroke-linecap="round" stroke-linejoin="round"/>
</svg>
